<svg width="214" height="34" viewBox="0 0 214 34" fill="none" xmlns="http://www.w3.org/2000/svg">
<path d="M44.321 27.3772C44.321 33.3272 37.1509 36.2474 33.0694 31.9601L26.206 24.6814C25.2953 23.7242 25.3238 22.2022 26.2708 21.2818C27.2171 20.3613 28.7239 20.3901 29.6345 21.3473L36.4418 28.5668C37.5746 29.7565 39.5636 28.9464 39.5636 27.2957V6.56218C39.5636 4.93067 37.6141 4.11172 36.4702 5.26225L10.9512 32.044C6.90052 36.1156 0 33.2161 0 27.4419V2.81897C0 1.51264 1.00555 0.39647 2.29728 0.353325C3.64829 0.307783 4.7574 1.40079 4.7574 2.75665V27.0775C4.7574 28.7091 6.70684 29.528 7.85074 28.3775L33.0014 1.96566C37.188 -2.24335 44.321 0.754412 44.321 6.72278V27.3772Z" fill="white"/>
<path d="M13.1915 10.3398C14.4668 10.3398 15.5007 9.29489 15.5007 8.00596C15.5007 6.71703 14.4668 5.67214 13.1915 5.67214C11.9162 5.67214 10.8824 6.71703 10.8824 8.00596C10.8824 9.29489 11.9162 10.3398 13.1915 10.3398Z" fill="white"/>
<path d="M77.1595 26.0352H72.9634L67.7957 20.6676L72.9634 15.3009H77.1595L71.9681 20.6676L77.1595 26.0352Z" fill="white"/>
<path d="M63.7213 26.3723V9.64813H67.04V26.3723H63.7213Z" fill="white"/>
<path d="M78.9959 26.3723V15.2162H82.3146V26.3723H78.9959Z" fill="white"/>
<path d="M212.363 11.127V11.3963H212.001V12.5069H211.668V11.3963H211.306V11.127H212.363Z" fill="white"/>
<path d="M213.999 11.127V12.5077H213.666V11.6799L213.361 12.5077H213.092L212.785 11.6783V12.5077H212.452V11.127H212.846L213.229 12.0826L213.609 11.127H213.999Z" fill="white"/>
<path d="M80.3873 11.9644C81.3338 11.9644 82.1011 11.1888 82.1011 10.2322C82.1011 9.27552 81.3338 8.5 80.3873 8.5C79.4407 8.5 78.6734 9.27552 78.6734 10.2322C78.6734 11.1888 79.4407 11.9644 80.3873 11.9644Z" fill="white"/>
<path d="M106.136 21.3436H96.5907C96.6326 22.2241 96.8437 22.9767 97.2224 23.6007C97.6018 24.2255 98.0998 24.6977 98.7188 25.0165C99.337 25.3361 100.011 25.4951 100.742 25.4951C101.697 25.4951 102.501 25.261 103.154 24.792C103.807 24.3238 104.24 23.6918 104.45 22.8968H106.01C105.728 24.0321 105.128 24.959 104.208 25.6756C103.288 26.3923 102.133 26.7511 100.742 26.7511C99.6595 26.7511 98.6904 26.5058 97.8342 26.0168C96.9773 25.527 96.3069 24.8319 95.8215 23.9299C95.3369 23.0286 95.095 21.974 95.095 20.7675C95.095 19.5611 95.3338 18.5032 95.8113 17.594C96.2887 16.6855 96.9559 15.9896 97.8129 15.507C98.669 15.0245 99.6461 14.7832 100.742 14.7832C101.837 14.7832 102.796 15.0245 103.618 15.507C104.44 15.9904 105.072 16.6392 105.514 17.4557C105.957 18.2723 106.178 19.1775 106.178 20.1707C106.178 20.682 106.164 21.0727 106.136 21.342L106.136 21.3436ZM104.165 17.9144C103.807 17.3039 103.318 16.8429 102.701 16.5297C102.083 16.2181 101.408 16.0615 100.678 16.0615C99.5821 16.0615 98.6477 16.4171 97.8753 17.1266C97.1022 17.8361 96.6745 18.8372 96.5899 20.1291H104.681C104.695 19.263 104.523 18.5248 104.165 17.9144Z" fill="white"/>
<path d="M108.074 17.606C108.551 16.7047 109.212 16.0088 110.054 15.519C110.898 15.0293 111.859 14.7848 112.941 14.7848C114.36 14.7848 115.529 15.1403 116.45 15.8498C117.369 16.5593 117.963 17.5253 118.23 18.7461H116.65C116.453 17.9088 116.027 17.252 115.375 16.7766C114.722 16.3012 113.91 16.0631 112.941 16.0631C112.168 16.0631 111.473 16.2413 110.855 16.5952C110.237 16.9508 109.749 17.4789 109.391 18.182C109.033 18.8851 108.853 19.7472 108.853 20.7699C108.853 21.7926 109.032 22.6579 109.391 23.3674C109.749 24.0777 110.237 24.6098 110.855 24.9645C111.473 25.3201 112.168 25.4967 112.941 25.4967C113.91 25.4967 114.721 25.2594 115.375 24.7832C116.028 24.3078 116.453 23.6438 116.65 22.7921H118.23C117.963 23.9842 117.366 24.943 116.439 25.6668C115.512 26.3915 114.345 26.7535 112.941 26.7535C111.86 26.7535 110.898 26.5082 110.054 26.0192C109.212 25.5294 108.551 24.8343 108.074 23.9323C107.596 23.031 107.358 21.9764 107.358 20.7699C107.358 19.5635 107.596 18.5088 108.074 17.6076V17.606Z" fill="white"/>
<path d="M127.933 15.2961C128.628 15.6652 129.176 16.2301 129.576 16.9891C129.976 17.7482 130.176 18.675 130.176 19.768V26.5833H128.723V19.939C128.723 18.6758 128.41 17.7098 127.785 17.0427C127.16 16.3755 126.307 16.0416 125.225 16.0416C124.144 16.0416 123.23 16.3971 122.571 17.1058C121.911 17.8161 121.58 18.8596 121.58 20.237V26.5833H120.105V10.8234H121.58V16.9348C121.945 16.2397 122.482 15.6996 123.192 15.3169C123.901 14.9334 124.699 14.7416 125.584 14.7416C126.47 14.7416 127.238 14.9262 127.934 15.2953L127.933 15.2961Z" fill="white"/>
<path d="M141.365 16.0304C142.237 16.8893 142.672 18.1349 142.672 19.7672V26.5825H141.218V19.9382C141.218 18.675 140.906 17.709 140.281 17.0419C139.656 16.3747 138.803 16.0408 137.721 16.0408C136.64 16.0408 135.726 16.3963 135.067 17.105C134.406 17.8153 134.076 18.8588 134.076 20.2362V26.5825H132.601V14.9549H134.076V16.9356C134.441 16.2261 134.968 15.6828 135.656 15.3065C136.345 14.9302 137.124 14.7424 137.995 14.7424C139.372 14.7424 140.495 15.1715 141.365 16.0304Z" fill="white"/>
<path d="M147.212 26.0184C146.348 25.5286 145.667 24.8335 145.169 23.9315C144.67 23.0302 144.42 21.9756 144.42 20.7691C144.42 19.5627 144.673 18.508 145.179 17.6068C145.684 16.7055 146.373 16.0096 147.244 15.5198C148.115 15.03 149.091 14.7856 150.173 14.7856C151.255 14.7856 152.234 15.0308 153.112 15.5198C153.989 16.0096 154.678 16.7055 155.177 17.6068C155.675 18.5088 155.925 19.5627 155.925 20.7691C155.925 21.9756 155.672 23.0126 155.167 23.9203C154.661 24.8295 153.966 25.5278 153.08 26.0176C152.195 26.5074 151.211 26.7519 150.13 26.7519C149.049 26.7519 148.076 26.5066 147.211 26.0176L147.212 26.0184ZM152.238 24.9318C152.883 24.5842 153.407 24.0585 153.808 23.3562C154.208 22.6531 154.408 21.791 154.408 20.7691C154.408 19.7472 154.211 18.8843 153.818 18.1812C153.424 17.4781 152.905 16.9532 152.259 16.6056C151.612 16.2581 150.91 16.0839 150.152 16.0839C149.394 16.0839 148.691 16.2581 148.045 16.6056C147.399 16.954 146.883 17.4789 146.496 18.1812C146.109 18.8843 145.917 19.7464 145.917 20.7691C145.917 21.7918 146.109 22.6539 146.496 23.3562C146.883 24.0593 147.395 24.5842 148.034 24.9318C148.674 25.2801 149.373 25.4535 150.131 25.4535C150.889 25.4535 151.591 25.2793 152.238 24.9318Z" fill="white"/>
<path d="M159.254 10.8234V26.5825H157.779V10.8234H159.254Z" fill="white"/>
<path d="M163.879 26.0184C163.015 25.5286 162.333 24.8335 161.835 23.9315C161.337 23.0302 161.087 21.9756 161.087 20.7691C161.087 19.5627 161.34 18.508 161.846 17.6068C162.351 16.7055 163.039 16.0096 163.911 15.5198C164.782 15.03 165.757 14.7856 166.839 14.7856C167.922 14.7856 168.9 15.0308 169.779 15.5198C170.656 16.0096 171.345 16.7055 171.844 17.6068C172.342 18.5088 172.591 19.5627 172.591 20.7691C172.591 21.9756 172.338 23.0126 171.833 23.9203C171.327 24.8295 170.632 25.5278 169.747 26.0176C168.862 26.5074 167.878 26.7519 166.797 26.7519C165.715 26.7519 164.743 26.5066 163.878 26.0176L163.879 26.0184ZM168.904 24.9318C169.55 24.5842 170.073 24.0585 170.474 23.3562C170.874 22.6531 171.074 21.791 171.074 20.7691C171.074 19.7472 170.877 18.8843 170.485 18.1812C170.091 17.4781 169.572 16.9532 168.926 16.6056C168.279 16.2581 167.577 16.0839 166.819 16.0839C166.061 16.0839 165.358 16.2581 164.711 16.6056C164.066 16.954 163.549 17.4789 163.163 18.1812C162.776 18.8843 162.583 19.7464 162.583 20.7691C162.583 21.7918 162.776 22.6539 163.163 23.3562C163.549 24.0593 164.062 24.5842 164.701 24.9318C165.341 25.2801 166.039 25.4535 166.798 25.4535C167.556 25.4535 168.258 25.2793 168.904 24.9318Z" fill="white"/>
<path d="M182.094 15.551C182.895 16.0623 183.471 16.7087 183.822 17.4893V14.9549H185.297V26.8805C185.297 27.9455 185.068 28.8891 184.612 29.7129C184.156 30.5366 183.52 31.1718 182.705 31.6192C181.89 32.0667 180.963 32.2904 179.924 32.2904C178.449 32.2904 177.224 31.9348 176.248 31.2253C175.271 30.5158 174.663 29.5499 174.425 28.329H175.879C176.132 29.1384 176.614 29.7848 177.323 30.2674C178.032 30.7499 178.899 30.9912 179.925 30.9912C180.67 30.9912 181.337 30.8314 181.927 30.5126C182.516 30.1931 182.98 29.7209 183.317 29.0969C183.654 28.4721 183.823 27.7338 183.823 26.8821V24.0074C183.458 24.8024 182.878 25.4591 182.085 25.9769C181.291 26.4954 180.354 26.7543 179.272 26.7543C178.191 26.7543 177.274 26.5066 176.438 26.0088C175.602 25.5118 174.949 24.8095 174.478 23.9003C174.008 22.9919 173.772 21.9412 173.772 20.7483C173.772 19.5555 174.008 18.5088 174.478 17.6076C174.949 16.7063 175.602 16.0104 176.438 15.5206C177.274 15.0308 178.218 14.7864 179.272 14.7864C180.326 14.7864 181.294 15.042 182.095 15.5526L182.094 15.551ZM183.253 18.2987C182.874 17.5892 182.358 17.0419 181.704 16.6584C181.051 16.2757 180.331 16.0831 179.544 16.0831C178.757 16.0831 177.999 16.2677 177.353 16.6368C176.706 17.0059 176.197 17.542 175.825 18.2451C175.453 18.9482 175.267 19.7824 175.267 20.7467C175.267 21.7111 175.453 22.5325 175.825 23.2491C176.197 23.9666 176.707 24.5131 177.353 24.8894C177.999 25.2658 178.729 25.4535 179.544 25.4535C180.359 25.4535 181.051 25.2618 181.704 24.8783C182.357 24.4947 182.874 23.949 183.253 23.238C183.632 22.5285 183.822 21.7047 183.822 20.7683C183.822 19.8319 183.633 19.0082 183.253 18.2987Z" fill="white"/>
<path d="M187.804 12.4422C187.593 12.2296 187.488 11.9668 187.488 11.6544C187.488 11.342 187.593 11.0831 187.804 10.877C188.015 10.6716 188.268 10.5686 188.562 10.5686C188.857 10.5686 189.11 10.6716 189.321 10.877C189.532 11.0831 189.638 11.342 189.638 11.6544C189.638 11.9668 189.532 12.2296 189.321 12.4422C189.11 12.6555 188.858 12.7617 188.562 12.7617C188.267 12.7617 188.015 12.6555 187.804 12.4422ZM189.301 14.9549V26.5825H187.826V14.9549H189.301Z" fill="white"/>
<path d="M202.174 21.3436H192.63C192.672 22.2241 192.883 22.9767 193.262 23.6007C193.641 24.2255 194.14 24.6977 194.758 25.0165C195.376 25.3361 196.05 25.4951 196.781 25.4951C197.736 25.4951 198.54 25.261 199.193 24.792C199.846 24.3238 200.279 23.6918 200.49 22.8968H202.049C201.767 24.0321 201.167 24.959 200.247 25.6756C199.327 26.3923 198.172 26.7511 196.781 26.7511C195.699 26.7511 194.73 26.5058 193.873 26.0168C193.016 25.527 192.346 24.8319 191.861 23.9299C191.377 23.0286 191.134 21.974 191.134 20.7675C191.134 19.5611 191.373 18.5032 191.85 17.594C192.328 16.6855 192.995 15.9896 193.852 15.507C194.709 15.0245 195.685 14.7832 196.781 14.7832C197.876 14.7832 198.835 15.0245 199.657 15.507C200.479 15.9904 201.11 16.6392 201.552 17.4557C201.995 18.2723 202.216 19.1775 202.216 20.1707C202.216 20.682 202.202 21.0727 202.174 21.342V21.3436ZM200.204 17.9144C199.846 17.3039 199.358 16.8429 198.74 16.5297C198.121 16.2181 197.447 16.0615 196.717 16.0615C195.622 16.0615 194.687 16.4171 193.914 17.1266C193.142 17.8361 192.713 18.8372 192.629 20.1291H200.72C200.734 19.263 200.563 18.5248 200.204 17.9144Z" fill="white"/>
<path d="M204.797 25.8266C203.962 25.209 203.495 24.3677 203.397 23.3027H204.914C204.984 23.9562 205.29 24.4844 205.831 24.8894C206.371 25.2937 207.098 25.4959 208.012 25.4959C208.812 25.4959 209.441 25.3041 209.897 24.9206C210.353 24.5371 210.582 24.0617 210.582 23.4936C210.582 23.0965 210.455 22.7698 210.202 22.5141C209.949 22.2584 209.63 22.0563 209.243 21.9077C208.857 21.7582 208.334 21.5984 207.673 21.4283C206.816 21.2014 206.122 20.9744 205.587 20.7467C205.054 20.5198 204.601 20.1827 204.228 19.7352C203.856 19.2878 203.67 18.6886 203.67 17.9359C203.67 17.3687 203.839 16.8429 204.176 16.3603C204.513 15.8778 204.99 15.4943 205.609 15.2106C206.227 14.927 206.929 14.7848 207.715 14.7848C208.952 14.7848 209.949 15.1012 210.707 15.7324C211.466 16.3635 211.873 17.2336 211.93 18.341H210.454C210.413 17.6595 210.149 17.1098 209.664 16.6911C209.179 16.2725 208.516 16.0623 207.673 16.0623C206.928 16.0623 206.324 16.2405 205.861 16.5944C205.397 16.95 205.165 17.3894 205.165 17.9144C205.165 18.369 205.302 18.7421 205.576 19.0321C205.85 19.3238 206.19 19.5507 206.597 19.7137C207.005 19.8767 207.552 20.058 208.241 20.257C209.069 20.4847 209.73 20.7044 210.221 20.9169C210.713 21.1294 211.134 21.4426 211.486 21.8533C211.837 22.2656 212.02 22.8121 212.033 23.4936C212.033 24.1184 211.865 24.6753 211.528 25.1651C211.19 25.6549 210.72 26.0416 210.116 26.3252C209.512 26.6088 208.816 26.7511 208.03 26.7511C206.709 26.7511 205.631 26.4427 204.795 25.825L204.797 25.8266Z" fill="white"/>
<path d="M96.8231 11.9524V13.166H92.8057V26.5825H91.3558V13.166H87.3178V11.9524H96.8231Z" fill="white"/>
</svg>
